<?xml version="1.0" encoding="UTF-8" standalone="no"?>
<!DOCTYPE svg PUBLIC "-//W3C//DTD SVG 1.1//EN"
 "http://www.w3.org/Graphics/SVG/1.1/DTD/svg11.dtd">
<!-- Generated by graphviz version 5.0.0 (20220707.1540)
 -->
<!-- Title: UmlClassDiagram Pages: 1 -->
<svg width="1144pt" height="1502pt"
 viewBox="0.00 0.00 1144.08 1501.60" xmlns="http://www.w3.org/2000/svg" xmlns:xlink="http://www.w3.org/1999/xlink">
<g id="graph0" class="graph" transform="scale(1 1) rotate(0) translate(4 1497.6)">
<title>UmlClassDiagram</title>
<polygon fill="white" stroke="transparent" points="-4,4 -4,-1497.6 1140.08,-1497.6 1140.08,4 -4,4"/>
<!-- 1 -->
<g id="node1" class="node">
<title>1</title>
<polygon fill="#f2f2f2" stroke="black" points="469.8,-1046.5 469.8,-1129.7 595.42,-1129.7 595.42,-1046.5 469.8,-1046.5"/>
<text text-anchor="middle" x="532.61" y="-1113.1" font-family="Times,serif" font-size="14.00">&lt;&lt;Struct&gt;&gt;</text>
<text text-anchor="middle" x="532.61" y="-1096.3" font-family="Times,serif" font-size="14.00">InitializableStorage</text>
<polyline fill="none" stroke="black" points="469.8,-1088.1 595.42,-1088.1 "/>
<text text-anchor="start" x="477.8" y="-1071.5" font-family="Times,serif" font-size="14.00">_initialized: uint64</text>
<text text-anchor="start" x="477.8" y="-1054.7" font-family="Times,serif" font-size="14.00">_initializing: bool</text>
</g>
<!-- 0 -->
<g id="node2" class="node">
<title>0</title>
<polygon fill="#f2f2f2" stroke="black" points="549.73,-1200.3 549.73,-1493.1 863.5,-1493.1 863.5,-1200.3 549.73,-1200.3"/>
<text text-anchor="middle" x="706.61" y="-1476.5" font-family="Times,serif" font-size="14.00">&lt;&lt;Abstract&gt;&gt;</text>
<text text-anchor="middle" x="706.61" y="-1459.7" font-family="Times,serif" font-size="14.00">Initializable</text>
<polyline fill="none" stroke="black" points="549.73,-1451.5 863.5,-1451.5 "/>
<text text-anchor="start" x="557.73" y="-1434.9" font-family="Times,serif" font-size="14.00">Private:</text>
<text text-anchor="start" x="557.73" y="-1418.1" font-family="Times,serif" font-size="14.00"> &#160;&#160;INITIALIZABLE_STORAGE: bytes32</text>
<polyline fill="none" stroke="black" points="549.73,-1409.9 863.5,-1409.9 "/>
<text text-anchor="start" x="557.73" y="-1393.3" font-family="Times,serif" font-size="14.00">Private:</text>
<text text-anchor="start" x="557.73" y="-1376.5" font-family="Times,serif" font-size="14.00"> &#160;&#160;&#160;_getInitializableStorage(): ($: InitializableStorage)</text>
<text text-anchor="start" x="557.73" y="-1359.7" font-family="Times,serif" font-size="14.00">Internal:</text>
<text text-anchor="start" x="557.73" y="-1342.9" font-family="Times,serif" font-size="14.00"> &#160;&#160;&#160;_checkInitializing()</text>
<text text-anchor="start" x="557.73" y="-1326.1" font-family="Times,serif" font-size="14.00"> &#160;&#160;&#160;_disableInitializers()</text>
<text text-anchor="start" x="557.73" y="-1309.3" font-family="Times,serif" font-size="14.00"> &#160;&#160;&#160;_getInitializedVersion(): uint64</text>
<text text-anchor="start" x="557.73" y="-1292.5" font-family="Times,serif" font-size="14.00"> &#160;&#160;&#160;_isInitializing(): bool</text>
<text text-anchor="start" x="557.73" y="-1275.7" font-family="Times,serif" font-size="14.00">Public:</text>
<text text-anchor="start" x="557.73" y="-1258.9" font-family="Times,serif" font-size="14.00"> &#160;&#160;&#160;&lt;&lt;event&gt;&gt; Initialized(version: uint64)</text>
<text text-anchor="start" x="557.73" y="-1242.1" font-family="Times,serif" font-size="14.00"> &#160;&#160;&#160;&lt;&lt;modifier&gt;&gt; initializer()</text>
<text text-anchor="start" x="557.73" y="-1225.3" font-family="Times,serif" font-size="14.00"> &#160;&#160;&#160;&lt;&lt;modifier&gt;&gt; reinitializer(version: uint64)</text>
<text text-anchor="start" x="557.73" y="-1208.5" font-family="Times,serif" font-size="14.00"> &#160;&#160;&#160;&lt;&lt;modifier&gt;&gt; onlyInitializing()</text>
</g>
<!-- 1&#45;&gt;0 -->
<g id="edge1" class="edge">
<title>1&#45;&gt;0</title>
<path fill="none" stroke="black" d="M555.09,-1129.76C565.86,-1146.79 579.58,-1167.78 594.36,-1189.9"/>
<polygon fill="black" stroke="black" points="594.54,-1190.17 601.2,-1192.93 601.21,-1200.14 594.55,-1197.38 594.54,-1190.17"/>
</g>
<!-- 0&#45;&gt;1 -->
<g id="edge2" class="edge">
<title>0&#45;&gt;1</title>
<path fill="none" stroke="black" stroke-dasharray="5,2" d="M614.6,-1200.14C599.4,-1177.93 584.4,-1156.42 571.45,-1138.35"/>
<polygon fill="black" stroke="black" points="573.96,-1135.83 565.27,-1129.76 568.28,-1139.92 573.96,-1135.83"/>
</g>
<!-- 2 -->
<g id="node3" class="node">
<title>2</title>
<polygon fill="#f2f2f2" stroke="black" points="817.43,-1012.9 817.43,-1163.3 1029.79,-1163.3 1029.79,-1012.9 817.43,-1012.9"/>
<text text-anchor="middle" x="923.61" y="-1146.7" font-family="Times,serif" font-size="14.00">&lt;&lt;Abstract&gt;&gt;</text>
<text text-anchor="middle" x="923.61" y="-1129.9" font-family="Times,serif" font-size="14.00">ContextUpgradeable</text>
<polyline fill="none" stroke="black" points="817.43,-1121.7 1029.79,-1121.7 "/>
<text text-anchor="start" x="825.43" y="-1105.1" font-family="Times,serif" font-size="14.00">Internal:</text>
<text text-anchor="start" x="825.43" y="-1088.3" font-family="Times,serif" font-size="14.00"> &#160;&#160;&#160;__Context_init()</text>
<text text-anchor="start" x="825.43" y="-1071.5" font-family="Times,serif" font-size="14.00"> &#160;&#160;&#160;__Context_init_unchained()</text>
<text text-anchor="start" x="825.43" y="-1054.7" font-family="Times,serif" font-size="14.00"> &#160;&#160;&#160;_msgSender(): address</text>
<text text-anchor="start" x="825.43" y="-1037.9" font-family="Times,serif" font-size="14.00"> &#160;&#160;&#160;_msgData(): bytes</text>
<text text-anchor="start" x="825.43" y="-1021.1" font-family="Times,serif" font-size="14.00"> &#160;&#160;&#160;_contextSuffixLength(): uint256</text>
</g>
<!-- 2&#45;&gt;0 -->
<g id="edge3" class="edge">
<title>2&#45;&gt;0</title>
<path fill="none" stroke="black" d="M860.85,-1163.32C857.06,-1167.8 853.19,-1172.38 849.24,-1177.04"/>
<polygon fill="none" stroke="black" points="841.1,-1170.41 829.75,-1200.09 857.14,-1183.97 841.1,-1170.41"/>
</g>
<!-- 4 -->
<g id="node4" class="node">
<title>4</title>
<polygon fill="#f2f2f2" stroke="black" points="651.96,-1054.9 651.96,-1121.3 761.26,-1121.3 761.26,-1054.9 651.96,-1054.9"/>
<text text-anchor="middle" x="706.61" y="-1104.7" font-family="Times,serif" font-size="14.00">&lt;&lt;Struct&gt;&gt;</text>
<text text-anchor="middle" x="706.61" y="-1087.9" font-family="Times,serif" font-size="14.00">OwnableStorage</text>
<polyline fill="none" stroke="black" points="651.96,-1079.7 761.26,-1079.7 "/>
<text text-anchor="start" x="659.96" y="-1063.1" font-family="Times,serif" font-size="14.00">_owner: address</text>
</g>
<!-- 3 -->
<g id="node5" class="node">
<title>3</title>
<polygon fill="#f2f2f2" stroke="black" points="651.15,-666.3 651.15,-975.9 1136.08,-975.9 1136.08,-666.3 651.15,-666.3"/>
<text text-anchor="middle" x="893.61" y="-959.3" font-family="Times,serif" font-size="14.00">&lt;&lt;Abstract&gt;&gt;</text>
<text text-anchor="middle" x="893.61" y="-942.5" font-family="Times,serif" font-size="14.00">OwnableUpgradeable</text>
<polyline fill="none" stroke="black" points="651.15,-934.3 1136.08,-934.3 "/>
<text text-anchor="start" x="659.15" y="-917.7" font-family="Times,serif" font-size="14.00">Private:</text>
<text text-anchor="start" x="659.15" y="-900.9" font-family="Times,serif" font-size="14.00"> &#160;&#160;OwnableStorageLocation: bytes32</text>
<polyline fill="none" stroke="black" points="651.15,-892.7 1136.08,-892.7 "/>
<text text-anchor="start" x="659.15" y="-876.1" font-family="Times,serif" font-size="14.00">Private:</text>
<text text-anchor="start" x="659.15" y="-859.3" font-family="Times,serif" font-size="14.00"> &#160;&#160;&#160;_getOwnableStorage(): ($: OwnableStorage)</text>
<text text-anchor="start" x="659.15" y="-842.5" font-family="Times,serif" font-size="14.00">Internal:</text>
<text text-anchor="start" x="659.15" y="-825.7" font-family="Times,serif" font-size="14.00"> &#160;&#160;&#160;__Ownable_init(initialOwner: address)</text>
<text text-anchor="start" x="659.15" y="-808.9" font-family="Times,serif" font-size="14.00"> &#160;&#160;&#160;__Ownable_init_unchained(initialOwner: address)</text>
<text text-anchor="start" x="659.15" y="-792.1" font-family="Times,serif" font-size="14.00"> &#160;&#160;&#160;_checkOwner()</text>
<text text-anchor="start" x="659.15" y="-775.3" font-family="Times,serif" font-size="14.00"> &#160;&#160;&#160;_transferOwnership(newOwner: address)</text>
<text text-anchor="start" x="659.15" y="-758.5" font-family="Times,serif" font-size="14.00">Public:</text>
<text text-anchor="start" x="659.15" y="-741.7" font-family="Times,serif" font-size="14.00"> &#160;&#160;&#160;&lt;&lt;event&gt;&gt; OwnershipTransferred(previousOwner: address, newOwner: address)</text>
<text text-anchor="start" x="659.15" y="-724.9" font-family="Times,serif" font-size="14.00"> &#160;&#160;&#160;&lt;&lt;modifier&gt;&gt; onlyOwner()</text>
<text text-anchor="start" x="659.15" y="-708.1" font-family="Times,serif" font-size="14.00"> &#160;&#160;&#160;owner(): address</text>
<text text-anchor="start" x="659.15" y="-691.3" font-family="Times,serif" font-size="14.00"> &#160;&#160;&#160;renounceOwnership()</text>
<text text-anchor="start" x="659.15" y="-674.5" font-family="Times,serif" font-size="14.00"> &#160;&#160;&#160;transferOwnership(newOwner: address)</text>
</g>
<!-- 4&#45;&gt;3 -->
<g id="edge4" class="edge">
<title>4&#45;&gt;3</title>
<path fill="none" stroke="black" d="M734.24,-1054.49C748.09,-1036.3 765.8,-1012.13 784.36,-986.25"/>
<polygon fill="black" stroke="black" points="784.52,-986.01 784.76,-978.81 791.5,-976.25 791.27,-983.46 784.52,-986.01"/>
</g>
<!-- 3&#45;&gt;0 -->
<g id="edge5" class="edge">
<title>3&#45;&gt;0</title>
<path fill="none" stroke="black" d="M822.2,-975.94C817.35,-988.18 812.75,-1000.43 808.61,-1012.4 785.94,-1077.97 790.59,-1097.36 770.61,-1163.8 769.86,-1166.3 769.09,-1168.82 768.32,-1171.35"/>
<polygon fill="none" stroke="black" points="758.25,-1168.37 759.16,-1200.14 778.26,-1174.74 758.25,-1168.37"/>
</g>
<!-- 3&#45;&gt;2 -->
<g id="edge6" class="edge">
<title>3&#45;&gt;2</title>
<path fill="none" stroke="black" d="M911.06,-976.25C911.32,-978.52 911.58,-980.78 911.83,-983.04"/>
<polygon fill="none" stroke="black" points="901.4,-984.25 915.21,-1012.88 922.27,-981.89 901.4,-984.25"/>
</g>
<!-- 3&#45;&gt;4 -->
<g id="edge7" class="edge">
<title>3&#45;&gt;4</title>
<path fill="none" stroke="black" stroke-dasharray="5,2" d="M778.16,-976.25C760.24,-1001.92 743.45,-1026.48 730.61,-1045.93"/>
<polygon fill="black" stroke="black" points="727.56,-1044.21 725,-1054.49 733.41,-1048.04 727.56,-1044.21"/>
</g>
<!-- 6 -->
<g id="node6" class="node">
<title>6</title>
<polygon fill="#f2f2f2" stroke="black" points="0,-779.5 0,-862.7 195.22,-862.7 195.22,-779.5 0,-779.5"/>
<text text-anchor="middle" x="97.61" y="-846.1" font-family="Times,serif" font-size="14.00">&lt;&lt;Struct&gt;&gt;</text>
<text text-anchor="middle" x="97.61" y="-829.3" font-family="Times,serif" font-size="14.00">Task</text>
<polyline fill="none" stroke="black" points="0,-821.1 195.22,-821.1 "/>
<text text-anchor="start" x="8" y="-804.5" font-family="Times,serif" font-size="14.00">payload_hash_reduced: bytes31</text>
<text text-anchor="start" x="8" y="-787.7" font-family="Times,serif" font-size="14.00">completed: bool</text>
</g>
<!-- 5 -->
<g id="node9" class="node">
<title>5</title>
<polygon fill="#f2f2f2" stroke="black" points="62.88,-0.5 62.88,-629.3 962.35,-629.3 962.35,-0.5 62.88,-0.5"/>
<text text-anchor="middle" x="512.61" y="-612.7" font-family="Times,serif" font-size="14.00">Gateway</text>
<polyline fill="none" stroke="black" points="62.88,-604.5 962.35,-604.5 "/>
<text text-anchor="start" x="70.88" y="-587.9" font-family="Times,serif" font-size="14.00">Public:</text>
<text text-anchor="start" x="70.88" y="-571.1" font-family="Times,serif" font-size="14.00"> &#160;&#160;chain_id_1: bytes32</text>
<text text-anchor="start" x="70.88" y="-554.3" font-family="Times,serif" font-size="14.00"> &#160;&#160;chain_id_2: bytes32</text>
<text text-anchor="start" x="70.88" y="-537.5" font-family="Times,serif" font-size="14.00"> &#160;&#160;chain_id_3: bytes32</text>
<text text-anchor="start" x="70.88" y="-520.7" font-family="Times,serif" font-size="14.00"> &#160;&#160;chain_id_length: uint256</text>
<text text-anchor="start" x="70.88" y="-503.9" font-family="Times,serif" font-size="14.00"> &#160;&#160;task_destination_network: string</text>
<text text-anchor="start" x="70.88" y="-487.1" font-family="Times,serif" font-size="14.00"> &#160;&#160;secret_gateway_signer_address: address</text>
<text text-anchor="start" x="70.88" y="-470.3" font-family="Times,serif" font-size="14.00"> &#160;&#160;VRF_routing_info: string</text>
<text text-anchor="start" x="70.88" y="-453.5" font-family="Times,serif" font-size="14.00"> &#160;&#160;VRF_routing_code_hash: string</text>
<text text-anchor="start" x="70.88" y="-436.7" font-family="Times,serif" font-size="14.00"> &#160;&#160;VRF_info: bytes</text>
<text text-anchor="start" x="70.88" y="-419.9" font-family="Times,serif" font-size="14.00"> &#160;&#160;taskId: uint256</text>
<text text-anchor="start" x="70.88" y="-403.1" font-family="Times,serif" font-size="14.00"> &#160;&#160;tasks: mapping(uint256=&gt;Task)</text>
<polyline fill="none" stroke="black" points="62.88,-394.9 962.35,-394.9 "/>
<text text-anchor="start" x="70.88" y="-378.3" font-family="Times,serif" font-size="14.00">Private:</text>
<text text-anchor="start" x="70.88" y="-361.5" font-family="Times,serif" font-size="14.00"> &#160;&#160;&#160;ethSignedPayloadHash(payload: bytes): (payloadHash: bytes32)</text>
<text text-anchor="start" x="70.88" y="-344.7" font-family="Times,serif" font-size="14.00"> &#160;&#160;&#160;encodeAddressToBase64(data: address): (result: bytes28)</text>
<text text-anchor="start" x="70.88" y="-327.9" font-family="Times,serif" font-size="14.00"> &#160;&#160;&#160;uint256toBytesString(x: uint256): (s: bytes)</text>
<text text-anchor="start" x="70.88" y="-311.1" font-family="Times,serif" font-size="14.00"> &#160;&#160;&#160;itoa31(x: uint256): (y: uint256)</text>
<text text-anchor="start" x="70.88" y="-294.3" font-family="Times,serif" font-size="14.00"> &#160;&#160;&#160;getChainId(chain_id_1_tmp: bytes32, chain_id_2_tmp: bytes32, chain_id_3_tmp: bytes32, chain_id_length_tmp: uint256): (result: string)</text>
<text text-anchor="start" x="70.88" y="-277.5" font-family="Times,serif" font-size="14.00"> &#160;&#160;&#160;prepareRandomnessBytesToCallbackData(callback_selector: bytes4, requestId: uint256, data: bytes): (result: bytes)</text>
<text text-anchor="start" x="70.88" y="-260.7" font-family="Times,serif" font-size="14.00"> &#160;&#160;&#160;prepareResultBytesToCallbackData(callback_selector: bytes4, _taskId: uint256, data: bytes): (result: bytes)</text>
<text text-anchor="start" x="70.88" y="-243.9" font-family="Times,serif" font-size="14.00">External:</text>
<text text-anchor="start" x="70.88" y="-227.1" font-family="Times,serif" font-size="14.00"> &#160;&#160;&#160;&lt;&lt;payable&gt;&gt; send(_payloadHash: bytes32, _userAddress: address, _routingInfo: string, _info: ExecutionInfo): (_taskId: uint256)</text>
<text text-anchor="start" x="70.88" y="-210.3" font-family="Times,serif" font-size="14.00"> &#160;&#160;&#160;&lt;&lt;payable&gt;&gt; requestRandomness(_numWords: uint32, _callbackGasLimit: uint32): (requestId: uint256)</text>
<text text-anchor="start" x="70.88" y="-193.5" font-family="Times,serif" font-size="14.00"> &#160;&#160;&#160;increaseTaskId(_newTaskId: uint256)</text>
<text text-anchor="start" x="70.88" y="-176.7" font-family="Times,serif" font-size="14.00"> &#160;&#160;&#160;payoutBalance()</text>
<text text-anchor="start" x="70.88" y="-159.9" font-family="Times,serif" font-size="14.00"> &#160;&#160;&#160;postExecution(_taskId: uint256, _sourceNetwork: string, _info: PostExecutionInfo)</text>
<text text-anchor="start" x="70.88" y="-143.1" font-family="Times,serif" font-size="14.00">Public:</text>
<text text-anchor="start" x="70.88" y="-126.3" font-family="Times,serif" font-size="14.00"> &#160;&#160;&#160;&lt;&lt;event&gt;&gt; logNewTask(task_id: uint256, source_network: string, user_address: address, routing_info: string, payload_hash: bytes32, info: ExecutionInfo)</text>
<text text-anchor="start" x="70.88" y="-109.5" font-family="Times,serif" font-size="14.00"> &#160;&#160;&#160;&lt;&lt;event&gt;&gt; TaskCompleted(taskId: uint256, callbackSuccessful: bool)</text>
<text text-anchor="start" x="70.88" y="-92.7" font-family="Times,serif" font-size="14.00"> &#160;&#160;&#160;&lt;&lt;event&gt;&gt; FulfilledRandomWords(requestId: uint256)</text>
<text text-anchor="start" x="70.88" y="-75.9" font-family="Times,serif" font-size="14.00"> &#160;&#160;&#160;recoverSigner(_signedMessageHash: bytes32, _signature: bytes): (signerAddress: address)</text>
<text text-anchor="start" x="70.88" y="-59.1" font-family="Times,serif" font-size="14.00"> &#160;&#160;&#160;initialize()</text>
<text text-anchor="start" x="70.88" y="-42.3" font-family="Times,serif" font-size="14.00"> &#160;&#160;&#160;constructor(secretGatewaySignerAddr: address)</text>
<text text-anchor="start" x="70.88" y="-25.5" font-family="Times,serif" font-size="14.00"> &#160;&#160;&#160;estimateRequestPrice(_callbackGasLimit: uint32): (baseFee: uint256)</text>
<text text-anchor="start" x="70.88" y="-8.7" font-family="Times,serif" font-size="14.00"> &#160;&#160;&#160;upgradeHandler()</text>
</g>
<!-- 6&#45;&gt;5 -->
<g id="edge8" class="edge">
<title>6&#45;&gt;5</title>
<path fill="none" stroke="black" d="M131.13,-779.18C153.46,-747.52 183.62,-702.95 212.61,-665.8 219.55,-656.91 226.65,-647.95 233.86,-638.96"/>
<polygon fill="black" stroke="black" points="233.9,-638.92 234.55,-631.74 241.43,-629.58 240.78,-636.76 233.9,-638.92"/>
</g>
<!-- 7 -->
<g id="node7" class="node">
<title>7</title>
<polygon fill="#f2f2f2" stroke="black" points="213.04,-720.7 213.04,-921.5 412.18,-921.5 412.18,-720.7 213.04,-720.7"/>
<text text-anchor="middle" x="312.61" y="-904.9" font-family="Times,serif" font-size="14.00">&lt;&lt;Struct&gt;&gt;</text>
<text text-anchor="middle" x="312.61" y="-888.1" font-family="Times,serif" font-size="14.00">ExecutionInfo</text>
<polyline fill="none" stroke="black" points="213.04,-879.9 412.18,-879.9 "/>
<text text-anchor="start" x="221.04" y="-863.3" font-family="Times,serif" font-size="14.00">user_key: bytes</text>
<text text-anchor="start" x="221.04" y="-846.5" font-family="Times,serif" font-size="14.00">user_pubkey: bytes</text>
<text text-anchor="start" x="221.04" y="-829.7" font-family="Times,serif" font-size="14.00">routing_code_hash: string</text>
<text text-anchor="start" x="221.04" y="-812.9" font-family="Times,serif" font-size="14.00">task_destination_network: string</text>
<text text-anchor="start" x="221.04" y="-796.1" font-family="Times,serif" font-size="14.00">handle: string</text>
<text text-anchor="start" x="221.04" y="-779.3" font-family="Times,serif" font-size="14.00">nonce: bytes12</text>
<text text-anchor="start" x="221.04" y="-762.5" font-family="Times,serif" font-size="14.00">callback_gas_limit: uint32</text>
<text text-anchor="start" x="221.04" y="-745.7" font-family="Times,serif" font-size="14.00">payload: bytes</text>
<text text-anchor="start" x="221.04" y="-728.9" font-family="Times,serif" font-size="14.00">payload_signature: bytes</text>
</g>
<!-- 7&#45;&gt;5 -->
<g id="edge9" class="edge">
<title>7&#45;&gt;5</title>
<path fill="none" stroke="black" d="M357.57,-720.64C367.59,-696.51 378.68,-669.38 390.19,-640.9"/>
<polygon fill="black" stroke="black" points="390.3,-640.61 388.84,-633.55 394.79,-629.48 396.26,-636.54 390.3,-640.61"/>
</g>
<!-- 8 -->
<g id="node8" class="node">
<title>8</title>
<polygon fill="#f2f2f2" stroke="black" points="429.77,-737.5 429.77,-904.7 595.46,-904.7 595.46,-737.5 429.77,-737.5"/>
<text text-anchor="middle" x="512.61" y="-888.1" font-family="Times,serif" font-size="14.00">&lt;&lt;Struct&gt;&gt;</text>
<text text-anchor="middle" x="512.61" y="-871.3" font-family="Times,serif" font-size="14.00">PostExecutionInfo</text>
<polyline fill="none" stroke="black" points="429.77,-863.1 595.46,-863.1 "/>
<text text-anchor="start" x="437.77" y="-846.5" font-family="Times,serif" font-size="14.00">payload_hash: bytes32</text>
<text text-anchor="start" x="437.77" y="-829.7" font-family="Times,serif" font-size="14.00">packet_hash: bytes32</text>
<text text-anchor="start" x="437.77" y="-812.9" font-family="Times,serif" font-size="14.00">callback_address: bytes20</text>
<text text-anchor="start" x="437.77" y="-796.1" font-family="Times,serif" font-size="14.00">callback_selector: bytes4</text>
<text text-anchor="start" x="437.77" y="-779.3" font-family="Times,serif" font-size="14.00">callback_gas_limit: bytes4</text>
<text text-anchor="start" x="437.77" y="-762.5" font-family="Times,serif" font-size="14.00">packet_signature: bytes</text>
<text text-anchor="start" x="437.77" y="-745.7" font-family="Times,serif" font-size="14.00">result: bytes</text>
</g>
<!-- 8&#45;&gt;5 -->
<g id="edge10" class="edge">
<title>8&#45;&gt;5</title>
<path fill="none" stroke="black" d="M517.77,-737.23C518.4,-709.51 518.84,-676.74 519.1,-641.89"/>
<polygon fill="black" stroke="black" points="519.1,-641.48 515.14,-635.46 519.18,-629.48 523.14,-635.51 519.1,-641.48"/>
</g>
<!-- 5&#45;&gt;0 -->
<g id="edge11" class="edge">
<title>5&#45;&gt;0</title>
<path fill="none" stroke="black" d="M597.98,-629.57C600.38,-641.77 602.61,-653.88 604.61,-665.8 641.43,-884.7 596.94,-946.57 642.61,-1163.8 643.12,-1166.23 643.66,-1168.67 644.21,-1171.12"/>
<polygon fill="none" stroke="black" points="634.05,-1173.77 651.69,-1200.21 654.39,-1168.54 634.05,-1173.77"/>
</g>
<!-- 5&#45;&gt;3 -->
<g id="edge12" class="edge">
<title>5&#45;&gt;3</title>
<path fill="none" stroke="black" d="M749.57,-629.48C752.82,-633.79 756.06,-638.06 759.26,-642.31"/>
<polygon fill="none" stroke="black" points="750.89,-648.65 777.36,-666.25 767.65,-635.99 750.89,-648.65"/>
</g>
<!-- 5&#45;&gt;6 -->
<g id="edge13" class="edge">
<title>5&#45;&gt;6</title>
<path fill="none" stroke="black" d="M223.43,-629.58C213.6,-641.72 203.96,-653.82 194.61,-665.8 168.22,-699.61 140.87,-739.57 121.8,-770.35"/>
<polygon fill="black" stroke="black" points="118.63,-768.83 116.4,-779.18 124.6,-772.48 118.63,-768.83"/>
</g>
<!-- 5&#45;&gt;7 -->
<g id="edge14" class="edge">
<title>5&#45;&gt;7</title>
<path fill="none" stroke="black" stroke-dasharray="5,2" d="M381.66,-629.48C370.35,-658.43 359.62,-686.22 350.14,-711.21"/>
<polygon fill="black" stroke="black" points="346.83,-710.05 346.56,-720.64 353.38,-712.53 346.83,-710.05"/>
</g>
<!-- 5&#45;&gt;8 -->
<g id="edge15" class="edge">
<title>5&#45;&gt;8</title>
<path fill="none" stroke="black" stroke-dasharray="5,2" d="M506.04,-629.48C506.26,-664.77 506.66,-698.35 507.24,-727.22"/>
<polygon fill="black" stroke="black" points="503.74,-727.3 507.45,-737.23 510.74,-727.15 503.74,-727.3"/>
</g>
</g>
</svg>
